<svg version="1.1" xmlns="http://www.w3.org/2000/svg" xmlns:xlink="http://www.w3.org/1999/xlink" x="0px" y="0px"
     viewBox="0 0 165.23 165" style="enable-background:new 0 0 165.23 165;" xml:space="preserve">
<g id="Layer_1">
    <rect x="11.23" y="43.91" style="fill:#CCCCCC;stroke:#000000;stroke-width:4;stroke-miterlimit:10;" width="152" height="96"/>
    <polygon style="fill:#CCCCCC;stroke:#000000;stroke-width:4;stroke-linejoin:bevel;stroke-miterlimit:10;" points="11.23,139.91
        87.23,76.91 163.23,139.91   "/>
    <polygon style="fill:#E6E6E6;stroke:#000000;stroke-width:4;stroke-linejoin:bevel;stroke-miterlimit:10;" points="11.23,43.91
        87.23,98.91 163.23,43.91    "/>
</g>
<g id="Layer_4">
    <g>
        <g>
            <path style="fill:#D4145A;" d="M47.63,109.31C21.19,109.31,2,89.58,2,62.39C2,29.72,25.46,5.09,56.56,5.09
                c25.85,0,43.9,17.94,43.9,43.61c0,23.81-13.9,36.27-27.63,36.27c-3.62,0-6.87-1.32-9.14-3.71c-1.51-1.58-2.55-3.59-3.09-5.93
                c-5.06,6.48-11.41,9.64-19.3,9.64c-10.17,0-17.55-8.47-17.55-20.14c0-19.92,16.21-36.13,36.13-36.13
                c5.91,0,11.83,1.17,16.25,3.21l1.42,0.65l-5.18,27.6c-1.71,8.68-0.55,11.75,0.29,12.81c0.31,0.39,0.86,0.91,2.12,0.95l0.1,0
                c6.44,0,13.39-9.31,13.39-24.35c0-20.88-12.59-33.86-32.85-33.86c-23.87,0-41.2,19.26-41.2,45.81
                c0,22.06,14.07,36.88,35.01,36.88c8.01,0,15.19-1.65,20.76-4.78l2.04-1.14l3.73,10.03l-1.55,0.82
                C66.34,107.47,58.15,109.31,47.63,109.31z M58.14,40.34c-11.33,0-20.9,10.95-20.9,23.92c0,2.69,0.73,8.94,7.5,8.94
                c6.99,0,14.13-9.64,15.6-17.93l2.68-14.44C61.48,40.5,59.85,40.34,58.14,40.34z"/>
            <path style="fill:#FFFFFF;" d="M56.56,7.09c25.06,0,41.9,17.57,41.9,41.61c0,21.6-12.1,34.27-25.63,34.27
                c-5.76,0-11.09-3.89-10.66-12.67H61.6c-5.04,8.5-11.66,12.67-20.3,12.67c-8.35,0-15.55-6.77-15.55-18.14
                c0-17.86,14.11-34.13,34.13-34.13c6.19,0,11.66,1.3,15.41,3.02l-4.9,26.06c-2.16,10.94-0.43,15.98,4.32,16.13
                c0.05,0,0.11,0,0.16,0c7.3,0,15.39-9.77,15.39-26.35c0-20.88-12.53-35.86-34.85-35.86c-23.47,0-43.2,18.58-43.2,47.81
                c0,24.05,15.7,38.88,37.01,38.88c8.21,0,15.84-1.73,21.74-5.04l2.3,6.19c-7.92,4.18-15.98,5.76-25.63,5.76
                C24.02,107.31,4,90.03,4,62.39C4,32.72,24.59,7.09,56.56,7.09 M44.75,75.2c8.35,0,15.98-10.66,17.57-19.58l3.02-16.27
                c-1.44-0.43-3.89-1.01-7.2-1.01c-12.67,0-22.9,11.95-22.9,25.92C35.25,70.59,38.42,75.2,44.75,75.2 M56.56,3.09
                c-16.19,0-30.83,6.34-41.23,17.84C5.44,31.87,0,46.59,0,62.39c0,14.09,5.03,26.76,14.16,35.69c8.73,8.53,20.62,13.23,33.47,13.23
                c10.86,0,19.34-1.92,27.5-6.22l3.11-1.64l-1.23-3.29l-2.3-6.19l-1.63-4.38L69,91.87c-5.21,2.92-12.23,4.53-19.79,4.53
                c-9.55,0-17.72-3.19-23.64-9.22c-6.13-6.25-9.37-15.12-9.37-25.66c0-25.38,16.49-43.81,39.2-43.81
                c19.03,0,30.85,12.21,30.85,31.86c0,6.82-1.53,12.94-4.31,17.22c-2.09,3.22-4.74,5.14-7.08,5.14l-0.08,0
                c-0.43-0.01-0.51-0.12-0.57-0.19c-0.17-0.22-1.64-2.37,0.1-11.16l4.9-26.1l0.58-3.06l-2.83-1.31c-4.67-2.16-10.9-3.39-17.08-3.39
                c-10.55,0-20.3,4.12-27.46,11.6c-6.78,7.08-10.67,16.75-10.67,26.53c0,14.54,9.84,22.14,19.55,22.14
                c7.28,0,13.49-2.61,18.55-7.77c0.72,1.46,1.58,2.6,2.39,3.44c2.66,2.79,6.42,4.33,10.59,4.33c14.72,0,29.63-13.15,29.63-38.27
                c0-12.79-4.52-24.38-12.72-32.64C81.44,7.7,69.66,3.09,56.56,3.09L56.56,3.09z M44.75,71.2c-3.65,0-5.5-2.34-5.5-6.94
                c0-11.88,8.65-21.92,18.9-21.92c0.87,0,1.72,0.05,2.55,0.14l-2.31,12.41C57.07,62.3,50.7,71.2,44.75,71.2L44.75,71.2z"/>
        </g>
    </g>
</g>
</svg>
